<svg xmlns="http://www.w3.org/2000/svg" version="1.1" xmlns:xlink="http://www.w3.org/1999/xlink" xmlns:svgjs="http://svgjs.dev/svgjs" width="1000" height="1000" viewBox="0 0 1000 1000"><rect width="1000" height="1000" fill="#ffffff"></rect><g transform="matrix(0.7,0,0,0.7,149.5757723635777,426.47036110908687)"><svg viewBox="0 0 396 83" data-background-color="#528265" preserveAspectRatio="xMidYMid meet" height="209" width="1000" xmlns="http://www.w3.org/2000/svg" xmlns:xlink="http://www.w3.org/1999/xlink"><g id="tight-bounds" transform="matrix(1,0,0,1,0.23999180502846684,0.21537954850168717)"><svg viewBox="0 0 395.52 82.56924090299661" height="82.56924090299661" width="395.52"><g><svg viewBox="0 0 521.3667182037053 108.84115633638373" height="82.56924090299661" width="395.52"><g><rect width="6.680268468336814" height="108.84115633638373" x="101.67883594391091" y="0" fill="#000000" opacity="1" stroke-width="0" stroke="transparent" fill-opacity="1" class="rect-o-0" data-fill-palette-color="primary" rx="1%" id="o-0" data-palette-color="#ffffff"></rect></g><g transform="matrix(1,0,0,1,125.84671820370536,0.2707491451153743)"><svg viewBox="0 0 395.52 108.29965804615298" height="108.29965804615298" width="395.52"><g id="textblocktransform"><svg viewBox="0 0 395.52 108.29965804615298" height="108.29965804615298" width="395.52" id="textblock"><g><svg viewBox="0 0 395.52 74.0762033898305" height="74.0762033898305" width="395.52"><g transform="matrix(1,0,0,1,0,0)"><svg width="395.52" viewBox="-0.20000000298023224 -33 176.989990234375 33.150001525878906" height="74.0762033898305" data-palette-color="#ffffff"><path d="M17.9 0.15L14.2 0.15 3.5-29.65Q3.15-30.65 2.58-31.23 2-31.8 1-32.1L1-32.1-0.2-32.5-0.2-33 14.2-33 14.2-32.5 12.65-32.05Q11.5-31.75 11.38-31 11.25-30.25 11.6-29.15L11.6-29.15 19-7.2 26.45-29.2Q26.85-30.35 26.83-31.1 26.8-31.85 25.65-32.15L25.65-32.15 24.35-32.5 24.35-33 31.35-33 31.35-32.5 30-32.1Q29.05-31.85 28.65-31.23 28.25-30.6 27.9-29.6L27.9-29.6 17.9 0.15ZM45.55 0L32.7 0 32.7-0.5 33.7-0.9Q34.7-1.25 35.02-1.85 35.35-2.45 35.35-3.45L35.35-3.45 35.35-29.55Q35.35-30.55 35.05-31.15 34.75-31.75 33.7-32.1L33.7-32.1 32.7-32.5 32.7-33 45.55-33 45.55-32.5 44.55-32.1Q43.55-31.75 43.22-31.15 42.9-30.55 42.9-29.55L42.9-29.55 42.9-3.45Q42.9-2.45 43.22-1.88 43.55-1.3 44.55-0.9L44.55-0.9 45.55-0.5 45.55 0ZM56 0L48.4 0 48.4-0.5 50.05-1Q50.95-1.25 51.35-1.98 51.75-2.7 51.75-3.7L51.75-3.7 51.75-27.75Q51.2-28.95 50.87-29.55 50.55-30.15 50.15-30.58 49.75-31 49.05-31.65L49.05-31.65 48.2-32.5 48.2-33 57.05-33 73.65-10.35 73.65-29.2Q73.65-30.2 73.32-31 73-31.8 72-32.05L72-32.05 70.34-32.5 70.34-33 77.5-33 77.5-32.5 76.15-32.05Q75.25-31.75 75.05-31 74.84-30.25 74.84-29.25L74.84-29.25 74.84 0.15 72.05 0.15 52.95-26.1 52.95-3.7Q52.95-2.7 53.25-2 53.55-1.3 54.5-1L54.5-1 56-0.5 56 0ZM93.09 0L80.39 0 80.39-0.5 81.39-0.9Q82.39-1.25 82.72-1.85 83.04-2.45 83.04-3.4L83.04-3.4 83.04-29.55Q83.04-30.55 82.72-31.15 82.39-31.75 81.39-32.1L81.39-32.1 80.39-32.5 80.39-33 93.09-33 93.09-32.5 92.24-32.15Q91.29-31.8 90.94-31.23 90.59-30.65 90.59-29.65L90.59-29.65 90.59-17.5 102.54-17.5 102.54-29.65Q102.54-30.65 102.22-31.23 101.89-31.8 100.89-32.15L100.89-32.15 99.99-32.5 99.99-33 112.74-33 112.74-32.5 111.74-32.1Q110.79-31.75 110.44-31.15 110.09-30.55 110.09-29.55L110.09-29.55 110.09-3.4Q110.09-2.45 110.44-1.85 110.79-1.25 111.74-0.9L111.74-0.9 112.74-0.5 112.74 0 99.99 0 99.99-0.5 100.89-0.8Q101.89-1.2 102.22-1.78 102.54-2.35 102.54-3.35L102.54-3.35 102.54-16.5 90.59-16.5 90.59-3.35Q90.59-1.5 92.24-0.8L92.24-0.8 93.09-0.5 93.09 0ZM123.19 0L115.59 0 115.59-0.5 117.24-1Q118.14-1.25 118.54-1.98 118.94-2.7 118.94-3.7L118.94-3.7 118.94-27.75Q118.39-28.95 118.06-29.55 117.74-30.15 117.34-30.58 116.94-31 116.24-31.65L116.24-31.65 115.39-32.5 115.39-33 124.24-33 140.84-10.35 140.84-29.2Q140.84-30.2 140.52-31 140.19-31.8 139.19-32.05L139.19-32.05 137.54-32.5 137.54-33 144.69-33 144.69-32.5 143.34-32.05Q142.44-31.75 142.24-31 142.04-30.25 142.04-29.25L142.04-29.25 142.04 0.15 139.24 0.15 120.14-26.1 120.14-3.7Q120.14-2.7 120.44-2 120.74-1.3 121.69-1L121.69-1 123.19-0.5 123.19 0ZM170.04 0L154.29 0 154.29-0.5 156.34-1Q158.39-1.45 158.39-3.5L158.39-3.5 158.39-32 154.14-32Q152.29-32 151.49-31.03 150.69-30.05 149.79-28.35L149.79-28.35 147.99-24.85 147.49-24.85 147.74-33 176.59-33 176.79-24.85 176.29-24.85 174.49-28.35Q173.64-30.05 172.84-31.03 172.04-32 170.19-32L170.19-32 165.94-32 165.94-3.5Q165.94-1.45 167.99-1L167.99-1 170.04-0.5 170.04 0Z" opacity="1" transform="matrix(1,0,0,1,0,0)" fill="#000000" class="undefined-text-0" data-fill-palette-color="primary" id="text-0"></path></svg></g></svg></g><g transform="matrix(1,0,0,1,0,91.56381718128813)"><svg viewBox="0 0 232.209792 16.735840864864866" height="16.735840864864866" width="232.209792"><g transform="matrix(1,0,0,1,0,0)"><svg width="232.209792" viewBox="0 -50 693.719970703125 50" height="16.735840864864866" data-palette-color="#ffffff"><path d="M37.5-6.25L6.25-6.25 6.25-12.5 0-12.5 0-18.75 12.5-18.75 12.5-12.5 31.25-12.5 31.25-50 43.75-50 43.75-12.5 37.5-12.5 37.5-6.25ZM93.75-6.25L56.25-6.25 56.25-12.5 50-12.5 50-18.75 56.25-18.75 56.25-25 81.25-25 81.25-31.25 56.25-31.25 56.25-37.5 87.5-37.5 87.5-31.25 93.75-31.25 93.75-6.25ZM62.5-18.75L62.5-12.5 81.25-12.5 81.25-18.75 62.5-18.75ZM131.25-6.25L118.75-6.25 118.75-12.5 112.5-12.5 112.5-18.75 106.25-18.75 106.25-37.5 118.75-37.5 118.75-18.75 131.25-18.75 131.25-37.5 143.75-37.5 143.75-18.75 137.5-18.75 137.5-12.5 131.25-12.5 131.25-6.25ZM193.74-6.25L156.24-6.25 156.24-12.5 149.99-12.5 149.99-18.75 156.24-18.75 156.24-25 181.24-25 181.24-31.25 156.24-31.25 156.24-37.5 187.49-37.5 187.49-31.25 193.74-31.25 193.74-6.25ZM162.49-18.75L162.49-12.5 181.24-12.5 181.24-18.75 162.49-18.75ZM281.24-6.25L249.99-6.25 249.99-50 281.24-50 281.24-43.75 287.49-43.75 287.49-37.5 293.74-37.5 293.74-18.75 287.49-18.75 287.49-12.5 281.24-12.5 281.24-6.25ZM262.49-43.75L262.49-12.5 274.99-12.5 274.99-18.75 281.24-18.75 281.24-37.5 274.99-37.5 274.99-43.75 262.49-43.75ZM337.49-6.25L306.24-6.25 306.24-12.5 299.99-12.5 299.99-31.25 306.24-31.25 306.24-37.5 337.49-37.5 337.49-31.25 343.74-31.25 343.74-18.75 312.49-18.75 312.49-12.5 337.49-12.5 337.49-6.25ZM312.49-31.25L312.49-25 331.24-25 331.24-31.25 312.49-31.25ZM381.23-6.25L368.73-6.25 368.73-12.5 362.48-12.5 362.48-18.75 356.23-18.75 356.23-37.5 368.73-37.5 368.73-18.75 381.23-18.75 381.23-37.5 393.73-37.5 393.73-18.75 387.48-18.75 387.48-12.5 381.23-12.5 381.23-6.25ZM437.48-6.25L406.23-6.25 406.23-12.5 399.98-12.5 399.98-31.25 406.23-31.25 406.23-37.5 437.48-37.5 437.48-31.25 443.73-31.25 443.73-18.75 412.48-18.75 412.48-12.5 437.48-12.5 437.48-6.25ZM412.48-31.25L412.48-25 431.23-25 431.23-31.25 412.48-31.25ZM493.73-6.25L456.23-6.25 456.23-12.5 468.73-12.5 468.73-43.75 462.48-43.75 462.48-50 481.23-50 481.23-12.5 493.73-12.5 493.73-6.25ZM537.48-6.25L506.23-6.25 506.23-12.5 499.98-12.5 499.98-31.25 506.23-31.25 506.23-37.5 537.48-37.5 537.48-31.25 543.73-31.25 543.73-12.5 537.48-12.5 537.48-6.25ZM512.48-31.25L512.48-12.5 531.23-12.5 531.23-31.25 512.48-31.25ZM562.47 0L549.97 0 549.97-37.5 587.47-37.5 587.47-31.25 593.72-31.25 593.72-18.75 587.47-18.75 587.47-12.5 562.47-12.5 562.47 0ZM562.47-31.25L562.47-18.75 581.22-18.75 581.22-31.25 562.47-31.25ZM637.47-6.25L606.22-6.25 606.22-12.5 599.97-12.5 599.97-31.25 606.22-31.25 606.22-37.5 637.47-37.5 637.47-31.25 643.72-31.25 643.72-18.75 612.47-18.75 612.47-12.5 637.47-12.5 637.47-6.25ZM612.47-31.25L612.47-25 631.22-25 631.22-31.25 612.47-31.25ZM668.72-37.5L668.72-31.25 674.97-31.25 674.97-25 668.72-25 668.72-6.25 656.22-6.25 656.22-37.5 668.72-37.5ZM674.97-37.5L693.72-37.5 693.72-31.25 674.97-31.25 674.97-37.5Z" opacity="1" transform="matrix(1,0,0,1,0,0)" fill="#000000" class="undefined-text-1" data-fill-palette-color="secondary" id="text-1"></path></svg></g></svg></g></svg></g></svg></g><g transform="matrix(1,0,0,1,0,0.2707491451153672)"><svg viewBox="0 0 84.19122215245329 108.299658046153" height="108.299658046153" width="84.19122215245329"><g><svg xmlns="http://www.w3.org/2000/svg" xmlns:xlink="http://www.w3.org/1999/xlink" version="1.1" x="0" y="0" viewBox="2.7230000495910645 0.06600001454353333 18.554000854492188 23.867000579833984" enable-background="new 0 0 24 24" xml:space="preserve" height="108.299658046153" width="84.19122215245329" class="icon-icon-0" data-fill-palette-color="accent" id="icon-0"><g fill="#ffffff" data-fill-palette-color="accent"><path d="M16.12 5.715h5.157l-5.628-5.648v5.181C15.649 5.506 15.86 5.715 16.12 5.715z" fill="#000000" data-fill-palette-color="accent"></path><g fill="#ffffff" data-fill-palette-color="accent"><polygon points="9.891,14.348 10.8,14.348 10.341,13.111   " fill="#000000" data-fill-palette-color="accent"></polygon><polygon points="15.666,14.348 16.576,14.348 16.117,13.111   " fill="#000000" data-fill-palette-color="accent"></polygon><path d="M21.172 6.168c-0.002 0-0.004 0-0.006 0l-5.521-0.001c-0.247 0-0.448-0.201-0.448-0.448V0.17c0-0.023-0.003-0.043 0-0.065 0.002-0.013-0.002-0.026 0-0.039H4.123c-0.771 0-1.4 0.628-1.4 1.4v7.064V9.6v8.639 0.73 3.564c0 0.771 0.629 1.4 1.4 1.4h15.754c0.771 0 1.4-0.629 1.4-1.4v-3.564-0.73V9.6 8.531 6.168C21.242 6.177 21.208 6.168 21.172 6.168zM8.318 14.415c0 0.276-0.024 0.488-0.073 0.636-0.065 0.194-0.183 0.35-0.355 0.467-0.171 0.117-0.397 0.176-0.677 0.176-0.329 0-0.582-0.092-0.759-0.276-0.177-0.184-0.267-0.454-0.268-0.81l0.634-0.073c0.008 0.191 0.036 0.326 0.084 0.405 0.073 0.12 0.183 0.18 0.332 0.18 0.15 0 0.256-0.043 0.318-0.128s0.093-0.263 0.093-0.533v-2.153h0.671V14.415zM11.307 15.666l-0.291-0.757H9.684l-0.275 0.757H8.695l1.298-3.332h0.711l1.334 3.332H11.307zM12.9 15.666l-1.191-3.332h0.73l0.843 2.466 0.816-2.466h0.714l-1.193 3.332H12.9zM17.083 15.666l-0.291-0.757H15.46l-0.275 0.757h-0.714l1.298-3.332h0.711l1.334 3.332H17.083z" fill="#000000" data-fill-palette-color="accent"></path></g></g></svg></g></svg></g></svg></g><defs></defs></svg><rect width="395.52" height="82.56924090299661" fill="none" stroke="none" visibility="hidden"></rect></g></svg></g></svg>